<svg width="1600" height="465" viewBox="0 0 1600 465" fill="none" xmlns="http://www.w3.org/2000/svg">
<path d="M310.132 391.023C308.507 390.211 305.561 393.867 304.342 395.188C303.936 395.594 303.53 395.899 303.225 396.407C302.92 396.813 302.514 397.219 302.209 397.524C301.702 398.032 301.397 398.336 300.991 398.641C300.584 398.844 300.28 399.047 299.975 399.047C299.061 399.251 297.842 398.54 296.115 397.118C294.49 395.696 293.677 394.477 293.474 393.766C293.373 392.648 294.287 390.109 296.42 386.148C298.553 382.288 299.467 379.139 299.162 376.701C299.061 375.787 298.756 375.076 298.451 374.67C298.045 374.264 297.537 374.061 296.826 374.162C296.521 374.162 296.115 374.67 295.607 375.584C295.201 376.498 294.49 377.717 293.881 379.545C292.662 382.796 291.646 385.335 290.833 387.062C290.122 388.687 289.614 389.601 289.31 389.804C287.481 390.515 286.262 391.328 285.653 392.242C285.145 393.156 284.84 394.578 284.84 396.61V397.93C284.434 399.352 284.028 400.673 283.52 401.891C283.114 403.11 282.606 404.126 282.098 405.142C281.996 405.548 281.895 405.751 281.692 405.954C281.489 406.158 281.184 406.361 280.879 406.361C280.676 406.361 280.676 406.361 280.574 406.361C280.473 406.259 280.473 406.158 280.371 405.954C280.371 405.65 280.371 405.04 280.473 404.025C280.574 403.11 280.777 401.688 280.981 400.063C281.285 398.235 281.59 396.508 281.793 394.68C281.996 392.851 282.301 391.125 282.606 389.296C282.911 387.062 283.215 385.03 283.723 383.304C284.13 381.475 284.536 380.053 284.942 378.834C286.974 373.248 288.396 368.677 289.208 364.817C290.021 360.958 290.325 358.114 290.021 356.082C289.716 354.254 289.31 352.933 288.497 352.019C287.786 351.105 286.77 350.8 285.551 351.004C285.348 351.004 285.044 351.105 284.942 351.308C284.739 351.511 284.536 351.715 284.434 352.019C283.926 353.238 283.52 354.457 283.114 355.777C282.707 357.098 282.403 358.52 282.2 359.942C282.2 360.45 281.996 360.856 281.895 361.262C281.692 361.669 281.59 361.973 281.488 362.177C281.285 362.684 280.981 363.802 280.574 365.325C280.168 366.849 279.66 368.779 279.153 371.217C278.543 373.756 278.137 375.889 277.832 377.412C277.426 379.038 277.223 380.155 277.121 380.866C276.613 381.679 276.105 382.796 275.496 384.218C274.988 385.64 274.379 387.367 273.769 389.398C273.261 390.82 272.855 392.14 272.347 393.359C271.737 394.477 271.128 395.492 270.315 396.305C269.909 396.813 269.604 397.321 269.3 397.625C268.995 398.032 268.792 398.336 268.69 398.743C268.589 399.149 268.487 399.454 268.386 399.657C268.284 399.758 267.167 401.079 266.76 401.485C266.354 401.993 265.948 402.501 265.542 402.907C264.932 403.517 264.424 403.923 263.917 404.228C263.409 404.532 262.799 404.634 262.291 404.736C261.885 404.736 261.479 404.735 261.073 404.634C260.768 404.532 260.463 404.431 260.362 404.025C260.158 403.821 259.854 403.212 259.346 401.993C258.838 400.774 258.533 399.962 258.127 399.352C257.924 398.336 257.619 397.422 257.314 396.508C257.01 395.492 256.705 394.68 256.299 393.664C255.892 392.648 255.283 391.937 254.47 391.531C253.658 391.125 252.744 390.922 251.626 391.125C251.22 391.226 250.814 391.328 250.509 391.633C250.103 391.937 249.798 392.242 249.595 392.852C248.985 394.172 247.665 395.797 245.837 397.829C244.008 399.962 242.789 401.587 242.078 402.907L241.977 403.415C241.977 403.415 241.367 404.329 240.961 404.532C240.656 404.736 240.352 404.837 239.945 404.939C239.437 405.04 238.93 404.837 238.422 404.431C237.914 404.025 237.508 403.415 237 402.501C236.289 400.876 235.476 399.251 234.562 397.524C233.851 396.61 233.14 396 232.429 395.594C231.616 395.188 230.702 395.086 229.788 395.289C229.28 395.289 228.772 395.492 228.163 395.899C227.553 396.305 226.843 396.711 226.03 397.219C225.42 397.829 224.811 398.336 224.303 398.844C223.795 399.352 223.389 399.86 222.983 400.266C222.78 400.673 222.576 400.977 222.475 401.18C222.373 401.485 222.17 401.79 222.068 401.891C221.561 402.399 221.154 402.907 220.748 403.517C220.342 404.025 220.139 404.634 219.936 405.142C219.326 405.853 218.818 406.462 218.31 407.072C217.904 407.681 217.599 408.189 217.396 408.697C217.295 408.9 217.091 409.103 216.99 409.306C216.888 409.509 216.787 409.611 216.584 409.713C216.38 409.509 216.177 409.306 216.177 409.103C216.177 408.9 216.177 408.697 216.177 408.392C216.177 408.087 216.279 407.681 216.381 407.275C216.584 406.767 216.685 406.158 216.888 405.447C217.599 401.993 218.006 399.352 218.209 397.219C218.514 395.188 218.514 393.766 218.412 393.055C218.209 391.734 217.803 390.82 217.193 390.109C216.584 389.5 215.67 389.296 214.654 389.5C213.537 389.601 212.521 390.007 211.607 390.617C210.692 391.226 209.88 392.141 209.169 393.258C208.356 394.578 207.544 395.594 206.934 396.61C206.325 397.422 205.817 398.235 205.411 398.844C204.496 400.266 203.684 401.485 202.973 402.501C202.262 403.517 201.754 404.431 201.246 405.04C200.738 405.751 200.23 406.361 199.824 406.869C199.418 407.376 199.012 407.783 198.808 408.087C198.605 408.494 198.402 408.9 198.199 409.103C197.996 409.408 197.894 409.611 197.793 409.916V410.017C197.386 410.322 197.082 410.728 196.777 411.135C196.472 411.541 196.066 411.947 195.761 412.252C195.253 412.76 194.847 413.166 194.542 413.369C194.238 413.572 193.831 413.775 193.527 413.775C192.612 413.979 191.394 413.268 189.769 411.846C188.143 410.424 187.229 409.306 187.128 408.494C186.924 407.376 187.94 404.837 190.073 400.876C192.206 396.914 193.12 393.766 192.816 391.429C192.714 390.515 192.409 389.804 192.104 389.398C191.698 388.992 191.19 388.789 190.479 388.89C190.175 388.992 189.769 389.398 189.261 390.312C188.753 391.226 188.143 392.547 187.432 394.274C186.213 397.625 185.198 400.063 184.487 401.79C183.674 403.517 183.166 404.431 182.963 404.532C181.135 405.243 179.916 406.056 179.306 406.97C178.697 407.884 178.494 409.306 178.494 411.338V412.658C178.088 414.08 177.681 415.401 177.173 416.62C176.767 417.838 176.259 418.854 175.751 419.87C175.65 420.175 175.548 420.581 175.345 420.784C175.142 420.987 174.939 421.089 174.634 421.19C174.532 421.19 174.329 421.19 174.329 421.089C174.228 420.987 174.126 420.886 174.126 420.682C174.126 420.378 174.126 419.768 174.228 418.753C174.329 417.838 174.532 416.518 174.837 414.893C175.142 413.166 175.345 411.338 175.65 409.509C175.853 407.783 176.158 405.954 176.462 404.228C176.869 401.993 177.173 399.962 177.58 398.133C177.986 396.407 178.392 394.883 178.799 393.664C180.83 388.179 182.15 383.507 183.065 379.749C183.776 375.889 184.08 372.943 183.776 370.912C183.572 369.084 183.065 367.763 182.354 366.95C181.643 366.036 180.627 365.732 179.408 365.935C179.205 365.935 179.002 366.036 178.697 366.341C178.494 366.544 178.392 366.747 178.189 367.052C177.783 368.169 177.376 369.49 176.869 370.709C176.462 372.029 176.158 373.451 175.955 374.975C175.955 375.483 175.751 375.889 175.65 376.295C175.447 376.6 175.345 376.905 175.244 377.108C175.04 377.717 174.736 378.733 174.329 380.358C173.923 381.882 173.415 383.913 172.907 386.351C172.298 388.89 171.79 390.922 171.485 392.547C171.181 394.172 170.977 395.391 170.876 396C170.368 396.813 169.86 397.93 169.251 399.352C168.743 400.774 168.133 402.501 167.524 404.532C167.016 405.954 166.508 407.275 166 408.494C165.492 409.611 164.782 410.627 164.071 411.439C163.664 411.947 163.36 412.353 163.055 412.76C162.75 413.166 162.547 413.572 162.445 413.877C162.344 414.283 162.242 414.588 162.141 414.791C162.039 414.994 161.938 415.096 161.836 415.198C161.633 415.502 161.328 415.807 160.922 416.01C160.617 416.213 160.414 416.416 160.211 416.518C159.5 417.127 158.687 417.534 157.773 418.042C156.859 418.448 155.742 418.854 154.624 419.057C153.913 418.956 153.202 418.956 152.694 418.854C152.085 418.753 151.679 418.549 151.374 418.448C150.968 418.245 150.561 417.94 150.257 417.534C149.952 417.026 149.749 416.518 149.647 415.909C149.546 415.502 149.647 415.197 149.749 414.791C149.85 414.486 150.054 414.182 150.155 413.877C152.39 411.033 154.116 408.595 155.335 406.462C156.554 404.329 157.265 402.501 157.468 400.977L157.671 399.454C157.773 398.641 157.875 398.133 157.875 397.829C157.875 397.422 157.976 397.321 158.078 397.625C157.874 396.914 157.671 396.203 157.468 395.696C157.265 394.985 156.859 394.375 156.656 393.969C156.351 393.461 156.046 393.156 155.843 392.953C155.538 392.648 155.03 392.445 154.523 392.344C154.015 392.242 153.405 392.242 152.694 392.344C152.187 392.445 151.679 392.547 151.272 392.75C150.764 392.953 150.358 393.156 150.053 393.258C149.647 393.664 149.342 393.969 148.936 394.172C148.631 394.477 148.225 394.781 148.022 395.086C147.413 396 146.803 397.016 146.194 397.93C145.584 398.844 144.975 399.758 144.467 400.571C143.858 401.891 143.451 403.11 143.045 404.228C142.74 405.243 142.435 406.158 142.334 406.869C142.131 407.58 142.029 408.291 141.928 408.798C141.826 409.408 141.725 409.916 141.725 410.424C141.725 411.033 141.725 411.642 141.725 412.252V414.182C140.912 414.994 140.302 415.807 139.795 416.518C139.287 417.229 138.88 418.042 138.576 418.651C136.747 420.682 135.427 422.104 134.411 423.222C133.396 424.238 132.786 424.847 132.583 424.847C132.278 424.948 132.075 424.847 131.872 424.542C131.669 424.339 131.567 423.933 131.466 423.526C131.364 422.917 131.364 421.8 131.364 420.276C131.364 418.651 131.466 416.518 131.567 413.877C131.974 410.525 132.278 407.58 132.583 405.243C132.888 402.806 133.192 400.774 133.497 399.149C133.599 398.54 133.599 398.032 133.599 397.524C133.7 397.118 133.7 396.61 133.7 396.305L136.747 395.289C137.154 395.188 137.255 394.578 137.357 393.664C137.357 392.648 137.255 391.226 136.951 389.398C136.849 388.89 136.849 388.585 136.747 388.281C136.646 387.976 136.443 387.874 136.239 387.773C136.036 387.57 135.833 387.468 135.732 387.367C135.63 387.265 135.529 387.163 135.427 387.062C135.427 386.452 135.529 385.538 135.833 384.319C136.138 383.202 136.138 382.186 136.138 381.475C135.935 380.561 135.63 379.952 135.224 379.545C134.817 379.139 134.208 378.936 133.497 379.139C132.177 379.342 131.059 380.967 130.247 384.015C129.536 387.062 128.52 388.687 127.504 388.89L125.981 388.687C125.473 388.789 125.067 388.992 124.762 389.093C124.356 389.195 123.949 389.296 123.645 389.5C123.34 389.398 122.832 389.398 122.223 389.398C121.613 389.398 120.902 389.5 120.09 389.601C119.683 389.703 119.277 389.906 118.769 390.109C118.16 390.109 117.55 390.007 116.738 390.109C116.027 390.109 115.214 390.211 114.3 390.312C113.487 390.414 112.878 391.023 112.573 392.14C112.268 393.156 112.268 394.68 112.573 396.711C112.573 396.914 112.776 397.219 112.979 397.321C113.183 397.524 113.487 397.625 113.893 397.727C114.097 397.829 114.401 397.829 114.706 397.93C115.011 397.93 115.316 398.133 115.62 398.235C115.824 398.235 116.331 398.133 116.839 398.133C117.449 398.032 117.855 398.032 118.058 398.032L123.848 397.321C124.051 397.321 124.356 397.219 124.762 397.016C125.168 396.813 125.473 396.813 125.676 396.711C125.879 396.61 126.082 396.711 126.184 396.813C126.285 396.914 126.387 397.016 126.387 397.219C126.082 398.032 125.879 398.743 125.676 399.352C125.473 399.962 125.27 400.368 125.066 400.774C123.543 404.735 121.918 408.189 120.293 411.236C118.566 414.283 116.839 416.924 114.909 419.362C114.604 419.87 114.3 420.378 114.097 420.784C113.894 421.19 113.69 421.495 113.487 421.8L113.386 422.206C112.979 422.612 112.472 423.12 112.065 423.628C111.659 424.136 111.151 424.542 110.846 425.05C110.338 425.558 109.729 426.066 109.221 426.269C108.713 426.574 108.104 426.675 107.596 426.777C107.19 426.878 106.783 426.777 106.377 426.777C106.072 426.675 105.768 426.472 105.666 426.167C105.463 426.066 105.158 425.355 104.65 424.136C104.143 422.917 103.838 422.104 103.533 421.495C103.33 420.581 102.924 419.565 102.619 418.651C102.314 417.737 101.908 416.823 101.603 415.909C101.197 414.893 100.588 414.08 99.775 413.674C98.9624 413.268 98.0482 413.166 96.9309 413.268C96.5246 413.268 96.22 413.471 95.8137 413.674C95.4074 413.979 95.1026 414.385 94.8994 414.893C94.29 416.112 93.0712 417.838 91.1413 419.87C89.313 422.003 88.0941 423.628 87.3831 424.847V425.355L87.18 425.659C86.5706 426.37 86.0626 426.98 85.5548 427.386C85.0469 427.894 84.6407 428.3 84.3359 428.605C83.0155 429.215 82.1013 429.722 81.2888 430.027C80.4762 430.433 80.0698 430.535 79.9683 430.535C77.6321 430.84 75.8038 430.332 74.3818 429.011C72.9597 427.691 72.0456 425.456 71.6394 422.511C72.4519 420.886 73.1629 419.159 73.8739 417.331C74.3818 416.213 74.8896 415.198 75.3975 414.385C75.9054 413.471 76.2102 412.861 76.5149 412.252C76.718 411.541 76.9212 411.033 77.0228 410.525C77.1243 410.017 77.3274 409.611 77.4289 409.306C77.7337 408.595 78.0383 407.986 78.343 407.478C78.5462 406.97 78.851 406.564 78.9525 406.158C79.2573 405.446 79.4605 404.736 79.5621 404.228C79.6636 403.72 79.765 403.212 79.8666 402.806C80.0697 402.196 80.3747 401.688 80.5778 401.18C80.7809 400.673 80.9839 400.266 81.1871 399.962C81.4918 398.743 81.6949 397.524 81.8981 396.407C81.9996 395.391 82.2029 394.477 82.3045 393.664C82.6092 392.75 82.8122 392.039 82.9138 391.328C83.0154 390.617 83.2185 390.109 83.2185 389.703L83.1171 389.093C83.2187 388.789 83.2185 388.484 83.2185 388.281C83.117 387.57 83.2185 386.656 83.4216 385.64C83.6248 384.624 83.625 383.913 83.625 383.304C83.625 382.796 83.5234 381.983 83.625 380.967C83.625 379.952 83.6249 379.139 83.5233 378.631C83.2186 376.701 82.8123 375.483 81.9997 374.873C81.1871 374.264 79.9683 374.061 78.2416 374.365C77.3274 374.467 76.4133 375.279 75.4992 376.6C74.585 377.92 73.4677 379.952 72.452 382.593C71.6394 384.523 70.9283 386.452 70.3189 388.281C69.7094 390.109 69.3032 391.937 68.8969 393.563C68.5922 394.578 68.389 395.492 68.0843 396.203C67.8812 397.016 67.6781 397.727 67.3733 398.235C66.8655 401.18 66.3576 403.923 66.0529 406.462C65.6466 409.002 65.3419 411.338 65.3419 413.471L65.7481 414.283C65.5449 414.69 65.4433 415.705 65.4433 417.331C65.3417 418.956 65.4433 420.175 65.4433 420.886C65.6465 421.089 65.6465 421.393 65.7481 421.8C65.7481 422.104 65.8498 422.308 65.8498 422.511C65.8498 422.612 65.748 422.815 65.6464 422.917L63.0057 426.066C62.5994 426.574 62.2945 427.183 62.0914 427.691C61.8882 428.199 61.6852 428.605 61.4821 428.91C61.1774 429.215 60.8726 429.519 60.6694 429.722C60.4663 429.926 60.1616 430.027 59.9585 430.027C59.7553 430.027 59.5521 430.027 59.349 429.824C59.1458 429.722 58.9427 429.418 58.8411 429.113C59.0442 428.707 59.349 428.3 59.6537 427.589C59.9584 426.878 60.1617 426.167 60.2633 425.152C60.4664 424.237 60.5678 423.425 60.5678 422.815C60.6693 422.003 60.5678 421.495 60.5678 420.886C60.1615 418.143 59.3489 416.213 58.0285 414.994C56.708 413.775 54.9813 413.369 52.7467 413.674C52.5436 413.674 52.0358 413.877 51.3248 414.182C50.6138 414.588 49.4965 415.096 48.2776 415.807L47.8712 415.401C48.1759 414.69 48.3792 413.877 48.5824 413.166C48.4808 412.861 48.2775 412.658 47.8712 412.557C47.5665 412.455 47.0586 412.455 46.3476 412.557C45.7382 412.658 45.2304 412.861 44.7226 413.166C44.2147 413.471 43.8083 413.877 43.3004 414.385C42.9957 414.893 42.5894 415.401 42.2847 415.909C41.98 416.416 41.5738 416.924 41.1675 417.432C40.8628 417.838 40.4565 418.245 40.1518 418.651C39.7455 419.057 39.3391 419.464 39.0344 419.971C38.5265 420.479 38.222 420.987 37.9173 421.495C37.6125 422.003 37.4093 422.409 37.3077 422.815C37.2061 422.917 37.1047 423.019 36.9015 423.222C37.1047 422.714 37.2061 422.308 37.3077 421.8C37.9172 419.362 38.0187 416.416 37.5108 413.065C37.2061 411.236 36.7999 409.509 36.292 408.087C35.7841 406.564 35.1748 405.142 34.3622 403.923C33.7528 402.806 32.8386 401.688 31.8229 400.571C30.7056 399.352 29.385 398.133 27.8614 396.711C27.6583 396.508 27.3536 396.305 27.1504 396C26.9473 395.797 26.7442 395.696 26.6426 395.594C25.6269 394.883 24.7127 394.274 24.1033 393.766C23.4938 393.258 23.0876 392.953 22.8844 392.648C21.3608 391.937 20.3452 391.328 19.6342 390.718C18.9232 390.109 17.2978 389.398 14.6569 388.585C13.7428 388.281 12.8287 388.078 11.9145 387.773C11.0004 387.468 10.1877 387.265 9.27354 386.96L7.85162 387.163C7.54691 386.96 6.93737 386.757 6.22636 386.554C5.31221 386.656 3.99196 387.874 2.3668 390.109C0.640059 392.344 -0.172573 393.867 0.0305728 394.781C0.0305728 394.985 0.233569 395.391 0.63986 395.899C1.04615 396.407 1.75731 397.118 2.56989 398.032C3.38247 399.047 4.09348 399.86 4.60135 400.571C5.10921 401.18 5.51535 401.79 5.7185 402.196L5.10921 417.127L5.61707 418.753C5.5155 419.768 5.51555 420.784 5.41398 421.597C5.41398 422.409 5.31231 423.12 5.31231 423.526C5.41388 425.253 5.41383 426.574 5.5154 427.488C5.5154 428.402 5.5154 429.011 5.5154 429.215C5.41383 431.043 5.41388 432.871 5.31231 434.699C5.31231 435.004 5.51535 435.512 5.7185 436.121C5.92164 436.731 6.02336 437.239 6.12494 437.544C6.32808 438.762 5.61702 439.778 4.29658 440.692C2.87456 441.606 2.26512 442.216 2.26512 442.622C2.26512 442.927 2.46827 443.232 2.77299 443.536C3.07771 443.739 3.48405 443.943 4.09348 444.146C4.49977 444.349 4.90601 444.552 5.31231 444.654C5.7186 444.857 6.12484 444.958 6.53113 445.06L7.14066 447.701C6.93752 449.224 6.8358 450.545 6.73422 451.561C6.63265 452.576 6.63265 453.49 6.73422 454.1C7.03894 456.233 7.44528 460.601 8.05472 461.616C8.66416 462.632 9.47689 463.038 10.4926 462.937C11.0005 462.835 11.5083 462.53 12.0162 462.023C12.5241 461.515 13.0318 460.804 13.4381 459.89C13.8444 459.077 14.1491 458.467 14.4539 457.858C14.7586 457.249 14.9617 453.694 15.1648 453.084C14.3522 452.373 13.8443 451.662 13.3365 451.053C12.9302 450.443 12.6255 449.834 12.6255 449.326C12.5239 447.904 12.4223 446.38 12.3207 444.857C12.1176 442.521 12.1176 441.302 12.3207 441.099C12.5239 440.997 13.0318 440.794 13.946 440.692C14.2507 440.692 14.6569 440.489 15.1648 440.083C15.6727 439.778 16.3838 439.372 17.0948 438.864C19.8373 437.239 22.3765 435.817 24.8142 434.496C26.0331 433.785 27.0489 433.176 27.9631 432.668C26.4395 435.004 30.1975 436.426 33.651 433.582C34.2604 433.074 34.4636 432.77 34.6667 432.77C34.9714 432.77 35.1747 432.77 35.2763 432.871C35.3778 432.973 35.581 433.176 35.581 433.379C35.581 433.582 35.4795 434.395 35.3779 435.614C35.1748 436.832 35.1747 437.848 35.2763 438.661C35.4794 440.489 36.3935 441.911 38.0187 443.232C39.6438 444.552 41.2692 444.958 42.9959 444.755C43.3006 444.654 43.6053 444.552 44.0116 444.45C44.5195 444.247 44.7225 444.146 44.9257 444.146C45.4335 444.044 45.9415 443.943 46.5509 443.638C47.1604 443.333 47.7698 442.927 48.5824 442.419C49.8013 441.708 50.9184 440.895 51.9341 439.88C52.8482 438.864 53.6609 437.848 54.2703 436.731C54.575 437.34 55.0829 437.747 55.5908 438.051C56.0987 438.255 56.7082 438.458 57.4192 438.255C58.0286 438.153 58.6381 437.95 59.2475 437.645C59.7554 437.239 60.4662 436.731 61.0756 436.121C61.5835 435.614 62.0915 435.106 62.4978 434.598C63.0057 434.09 63.4119 433.481 63.9197 432.973C64.6307 432.16 65.1387 431.551 65.545 430.84C65.9513 430.23 66.3575 429.722 66.7638 429.215C67.0685 429.418 67.2716 429.621 67.4748 429.824C67.6779 430.027 67.7796 430.23 67.8812 430.535C68.6938 433.176 69.7094 435.207 71.0298 436.325C72.3503 437.543 73.8739 438.051 75.6006 437.848C76.1085 437.747 76.9211 437.747 77.9368 437.747C78.9525 437.645 79.6635 437.645 80.1714 437.544C81.0855 437.442 81.9997 437.036 83.0155 436.528C83.9296 436.02 84.8439 435.207 85.6564 434.293C86.3674 433.481 87.0783 432.668 87.7893 431.855C88.5003 430.941 89.2114 430.23 89.9224 429.316H89.8208C90.8365 427.894 91.6492 426.777 92.4618 425.964C93.2743 425.152 93.7823 424.745 94.2901 424.745C94.4933 424.745 94.6962 424.847 95.1025 425.152C95.4072 425.456 95.8136 425.964 96.2199 426.574C96.6262 426.98 96.9309 427.285 97.2356 427.691C97.5404 427.996 97.7434 428.3 97.9466 428.504C99.3686 431.246 100.486 432.973 101.4 433.481C102.314 433.988 104.143 434.09 106.987 433.684C107.495 433.582 108.104 433.379 108.916 432.77C109.729 432.16 110.745 431.348 111.862 430.332C112.878 429.316 113.792 428.504 114.503 427.793C115.214 427.082 115.823 426.371 116.23 425.863C116.433 425.355 116.738 424.948 116.839 424.644C117.042 424.339 117.144 424.136 117.245 423.933C118.667 422.104 119.988 420.378 121.41 418.753C122.324 417.737 123.035 416.721 123.645 415.807C124.254 414.893 124.762 414.08 125.066 413.268L125.473 412.963C125.778 413.064 125.879 413.166 125.981 413.369C125.676 414.283 125.473 415.096 125.27 415.807C125.27 417.026 125.27 418.245 125.168 419.464C125.168 420.175 125.168 420.784 125.168 421.393C125.168 421.901 125.168 422.308 125.168 422.612C125.067 422.815 125.067 423.019 124.965 423.323C124.762 424.136 124.762 425.253 124.762 426.574C124.864 427.894 124.965 429.418 125.27 431.144C125.473 432.77 125.981 433.887 126.793 434.598C127.504 435.309 128.622 435.614 129.942 435.411C130.551 435.309 131.161 435.106 131.872 434.598C132.481 434.192 133.192 433.481 133.802 432.566C134.208 431.957 134.716 431.246 135.122 430.535C135.529 429.824 136.036 429.113 136.544 428.504C137.052 427.894 137.458 427.285 137.763 426.878C138.169 426.371 138.474 425.964 138.779 425.558C139.49 424.948 140.099 424.339 140.607 423.831C141.115 423.323 141.42 422.917 141.725 422.409V422.308C142.029 421.901 142.334 421.495 142.537 421.19C142.842 420.886 143.045 420.784 143.35 420.784C143.654 420.682 143.959 420.886 144.264 421.19C144.569 421.495 144.873 421.901 145.28 422.511C145.787 423.323 146.092 423.933 146.498 424.542C146.905 425.152 147.21 425.456 147.616 425.761C148.225 426.269 149.038 426.675 150.053 426.878C150.968 427.082 151.983 427.081 153.101 426.98C153.913 426.878 154.726 426.675 155.335 426.472C155.945 426.269 156.452 425.964 156.859 425.659C158.078 425.456 159.296 424.847 160.617 423.831C161.937 422.714 163.36 421.292 164.883 419.26C165.289 418.549 165.493 418.042 165.594 417.838C165.696 417.534 165.797 417.432 165.899 417.331C166.61 416.213 167.219 415.299 167.727 414.588C168.235 413.877 168.641 413.166 169.048 412.557L169.454 412.963C169.556 413.471 169.556 413.979 169.454 414.69C169.454 415.401 169.352 416.112 169.251 417.026C168.946 418.956 168.743 420.682 168.743 422.409C168.743 424.034 168.844 425.66 169.048 427.082C169.251 428.504 169.657 429.519 170.47 430.23C171.079 430.84 172.095 431.043 173.314 430.941C174.126 430.84 174.736 430.433 175.142 429.824C175.65 429.113 176.056 428.504 176.361 427.894C176.665 427.386 177.072 426.98 177.376 426.675C177.681 426.37 177.884 426.066 177.986 425.761C178.494 425.05 178.9 424.339 179.306 423.526C179.713 422.815 180.221 422.104 180.627 421.393C181.338 420.276 182.151 419.057 183.166 417.838C183.268 417.838 184.588 418.549 187.026 420.175C189.464 421.698 191.19 422.409 192.104 422.308C193.019 422.206 193.831 421.901 194.644 421.393C195.456 420.886 196.269 420.073 197.082 419.057C197.793 418.346 198.402 417.534 199.011 416.721C199.621 415.909 200.332 415.096 200.942 414.283L200.84 414.182C201.043 413.877 201.246 413.572 201.246 413.369C201.348 413.166 201.449 412.963 201.449 412.76C201.957 412.15 202.363 411.744 202.668 411.236C202.973 410.83 203.278 410.424 203.582 410.22C203.785 410.017 204.09 409.713 204.497 409.103C205.004 408.494 205.512 407.681 206.325 406.665C206.934 405.751 207.442 405.142 207.848 404.736C208.255 404.228 208.661 404.025 208.966 404.025C209.27 404.025 209.575 404.024 209.677 404.126C209.88 404.228 209.981 404.329 209.981 404.634C210.083 404.837 210.083 405.04 209.981 405.345C209.981 405.65 209.88 406.056 209.88 406.462C209.778 406.869 209.677 407.275 209.677 407.478C209.575 407.783 209.575 407.986 209.575 408.087C209.169 410.728 208.864 413.166 208.458 415.096C208.153 417.026 207.848 418.753 207.544 420.073C207.747 420.886 207.95 421.8 208.255 422.612C208.458 423.425 209.169 423.73 210.388 423.628C210.997 423.526 211.607 423.425 212.013 423.222C212.521 423.019 212.927 422.714 213.232 422.308C213.536 421.901 213.943 421.495 214.247 421.089C214.552 420.581 214.958 420.175 215.263 419.768C216.584 417.94 217.701 416.416 218.513 415.096C219.428 413.776 220.037 412.76 220.342 411.947C220.443 411.541 220.85 411.135 221.357 410.728C221.967 410.322 222.78 409.408 223.998 408.087C224.608 407.376 225.116 406.869 225.623 406.361C226.131 405.954 226.639 405.548 227.249 405.345L227.655 405.447C228.468 406.259 229.179 406.869 229.788 407.478C230.398 408.087 230.905 408.494 231.413 408.9C232.023 409.814 232.53 410.525 233.038 411.236C233.445 411.744 233.851 412.15 234.156 412.353C234.664 412.963 235.273 413.268 235.984 413.572C236.695 413.776 237.304 413.775 238.117 413.674C238.726 413.572 239.336 413.369 239.844 413.065C240.453 412.76 241.063 412.15 241.672 411.439C242.18 410.931 242.586 410.424 243.094 409.916C243.602 409.408 244.008 408.9 244.516 408.392C245.532 406.97 246.345 405.751 247.157 405.04C247.868 404.228 248.477 403.821 248.985 403.72C249.188 403.72 249.392 403.821 249.798 404.126C250.103 404.431 250.509 404.939 251.017 405.548C251.321 405.954 251.728 406.259 252.032 406.665C252.337 406.97 252.54 407.173 252.744 407.478C254.166 410.322 255.283 411.947 256.197 412.455C257.111 412.963 258.939 413.064 261.783 412.658C262.19 412.557 262.901 412.252 263.713 411.642C264.526 411.033 265.542 410.322 266.659 409.205C267.675 408.189 268.589 407.376 269.3 406.665C270.011 405.954 270.62 405.243 271.027 404.736C271.433 404.025 271.636 403.517 271.738 403.313C271.839 403.11 271.941 402.907 272.042 402.704C272.652 401.587 273.363 400.774 273.871 399.962C274.378 399.251 274.886 398.54 275.191 398.032L275.496 398.438C275.597 398.844 275.597 399.454 275.496 400.165C275.496 400.876 275.394 401.587 275.293 402.501C274.988 404.329 274.785 406.158 274.785 407.884C274.785 409.509 274.785 411.135 275.09 412.658C275.293 414.08 275.699 415.096 276.41 415.705C277.121 416.315 278.035 416.518 279.356 416.315C280.168 416.213 280.778 415.909 281.184 415.198C281.59 414.588 282.098 413.877 282.403 413.268C282.707 412.76 283.114 412.353 283.419 412.049C283.723 411.744 283.926 411.439 284.028 411.135C284.536 410.424 284.942 409.713 285.348 409.002C285.755 408.291 286.161 407.58 286.669 406.869C287.38 405.65 288.192 404.532 289.208 403.313C289.411 403.212 290.63 404.024 293.068 405.65C295.506 407.275 297.131 407.986 298.147 407.884C299.061 407.681 299.873 407.376 300.686 406.869C301.498 406.361 302.311 405.65 303.124 404.634C303.835 403.821 304.444 403.009 305.054 402.196C305.663 401.384 306.374 400.571 306.983 399.758C306.78 399.149 311.859 391.836 310.132 391.023ZM26.5409 426.574C26.2362 426.98 25.6268 427.488 25.0173 428.199C24.5095 428.707 24.1034 429.113 23.6971 429.418C23.2908 429.824 22.8844 430.129 22.5797 430.332C21.7671 430.84 21.0561 431.348 20.3451 431.754C19.6341 432.16 18.9232 432.77 18.1106 433.277C16.9933 434.09 15.9775 434.699 15.2665 435.106C14.5555 435.512 13.9459 435.715 13.6412 435.715C13.4381 435.715 13.2351 435.715 13.0319 435.512C12.8288 435.41 12.7272 435.106 12.7272 434.801C12.524 433.481 12.5239 431.652 12.6255 429.418C12.7271 427.183 12.9302 424.441 13.3365 421.19L12.7272 419.362C13.0319 418.448 13.4382 415.807 14.0477 411.439C14.6571 407.072 14.8602 404.634 14.7586 404.025C14.5555 402.196 12.3207 399.758 8.25782 396.508C8.25782 396.305 8.25791 396.102 8.35949 396.102C8.46106 396 8.56253 395.899 8.76568 395.899C9.88298 396.203 10.7972 396.61 11.6098 396.813C12.5239 397.118 13.2349 397.219 13.8443 397.422C14.2506 397.727 14.5554 398.032 14.9617 398.235C15.2664 398.54 15.6726 398.743 15.8758 398.844C18.3135 400.368 20.2434 401.79 21.767 403.009C23.1891 404.228 24.3065 405.345 24.9159 406.158C25.119 406.564 25.4238 406.97 25.7285 407.275C25.9317 407.478 26.2363 407.783 26.4395 407.884C26.6426 408.087 26.8456 408.291 27.0488 408.494C27.2519 408.595 27.3535 408.798 27.3535 409.002L27.6583 410.119C28.3693 411.236 28.8773 412.455 29.2836 413.572C29.6899 414.69 29.9945 415.807 30.1976 416.924C30.4008 418.854 30.4009 420.479 29.7914 422.003C29.2836 423.425 28.471 424.745 27.2521 425.863C27.1505 425.964 26.8456 426.167 26.5409 426.574ZM54.0672 427.894C54.0672 428.504 53.9657 429.113 53.8641 429.519C53.7626 429.926 53.661 430.23 53.3563 430.433C53.0515 431.043 52.6452 431.652 52.2389 432.262C51.4263 433.988 50.4105 435.309 49.3948 436.223C48.2775 437.137 47.0587 437.747 45.6366 437.95C44.7225 438.051 44.113 437.95 43.6052 437.544C43.0973 437.137 42.7927 436.528 42.6911 435.715C42.5895 435.207 42.5895 434.699 42.6911 433.988C42.7927 433.277 42.8942 432.465 43.0973 431.449C43.3005 430.332 43.5036 429.418 43.8083 428.808C44.113 428.199 44.3162 427.894 44.6209 427.793C45.1288 427.589 45.535 427.488 45.8397 427.183C46.1444 426.98 46.5509 426.574 46.754 426.167C47.1603 425.253 47.5665 424.441 47.8712 423.628C48.0743 423.12 48.3792 422.714 48.5824 422.409C48.8871 422.104 48.9885 421.901 49.1917 421.8C50.2074 421.8 50.9185 421.8 51.5279 421.8C52.0358 421.901 52.4421 421.901 52.5436 422.003C52.8483 422.104 53.0515 422.409 53.3563 422.917C53.7626 423.425 54.0671 424.136 54.4734 424.948L54.0672 427.894ZM71.3346 412.557C71.233 412.15 71.3347 411.338 71.4363 410.22C71.6394 409.103 71.8423 407.681 72.2486 405.853C72.6549 404.634 72.9597 403.517 73.366 402.501C73.5692 401.688 73.874 400.977 73.9756 400.368C74.0771 399.86 74.1786 399.454 74.077 399.251C73.9754 397.93 74.1785 396.407 74.788 394.781C75.499 393.156 76.5149 391.531 78.0385 389.601L78.343 389.703C78.343 390.312 78.2416 390.922 78.2416 391.531C78.14 392.141 78.14 392.75 78.2416 393.359C78.2416 394.07 77.9369 396 77.2259 398.946C76.5148 401.891 76.0069 403.72 75.6006 404.431C75.1943 405.447 74.7882 406.462 74.4834 407.275C74.0771 408.087 73.7724 408.697 73.6708 409.306C73.2645 410.424 72.9598 411.236 72.6551 411.846C72.3504 412.455 72.0455 412.76 71.7408 412.861L71.3346 412.557ZM149.343 408.087C149.139 408.494 148.936 408.697 148.632 408.697C148.327 408.798 148.225 408.697 148.124 408.697C148.022 408.595 147.92 408.494 147.92 408.291C147.819 407.478 148.225 406.056 149.139 404.228C150.054 402.298 150.764 401.282 151.475 401.18C151.679 401.18 151.882 401.18 151.983 401.384C152.085 401.587 152.187 401.79 152.187 401.993C152.288 402.399 152.186 402.907 152.085 403.313C151.882 403.821 151.78 404.228 151.374 404.736C151.171 405.142 150.866 405.447 150.663 405.853C150.358 406.259 150.155 406.665 149.85 406.97C149.749 407.376 149.546 407.681 149.343 408.087Z" fill="#00426D"/>
<path fill-rule="evenodd" clip-rule="evenodd" d="M285.958 41.8165C287.38 38.4646 288.09 34.7064 288.09 30.8467C288.09 14.8997 275.089 2 259.142 2C243.195 2 230.296 14.8997 230.296 30.8467C230.296 31.3545 230.296 31.8624 230.397 32.3703H55.3874C24.9156 32.3703 0.0302734 57.2556 0.0302734 87.6258V287.115C0.0302734 317.485 24.9156 342.37 55.3874 342.37H255.181C285.551 342.37 310.538 317.485 310.538 287.115V87.7274C310.538 68.6317 300.686 51.7706 285.958 41.8165Z" fill="#00426D"/>
<path fill-rule="evenodd" clip-rule="evenodd" d="M276.102 125.614V187.371V249.228V310.985H242.278V277.872L240.247 283.966L237.708 289.959L234.762 295.546L231.41 300.624L229.582 302.859L227.652 304.89L223.487 308.141L221.253 309.359L218.917 310.375L216.58 310.883L214.143 310.985H179.709L172.092 256.034L189.257 256.44L194.539 256.338L199.821 256.034L205.103 254.916L207.642 254.104L209.877 252.987L210.892 251.768L211.705 250.244L212.416 248.822L212.924 247.197L213.228 245.369L213.33 243.439L213.228 239.376L212.518 235.11L211.299 230.742L209.877 226.273L208.15 222.007L188.343 182.597L203.884 152.633L206.017 147.757L207.744 143.491L208.861 139.631L209.673 136.178L209.877 133.029L209.775 130.388L209.369 128.052L208.556 126.021L207.439 124.294L206.017 122.872L204.29 121.755L202.259 120.84L200.126 120.129L197.789 119.723L195.148 119.418H192.406H178.694L179.202 128.458L179.303 137.6L178.999 146.742L178.186 155.883L177.17 164.821L175.748 173.557L174.022 181.784L173.006 185.644L172.092 189.402L170.873 193.363L169.349 197.325L165.896 205.654L163.864 210.021L161.731 214.389L156.653 223.226L154.012 227.797L151.168 232.266L144.972 241.306L138.471 250.143L135.017 254.51L131.666 258.878V310.985H104.139V281.529L98.1465 310.985H34.4604V249.228V187.371V125.614V63.8582H68.2842L68.0811 160.048L67.9795 256.44H104.139V192.856V129.373H131.666V194.074L134.408 189.402L137.658 183.714L140.909 177.416L144.058 170.611L146.901 163.501L149.238 156.289L150.253 152.633L150.863 149.179L151.269 145.624L151.472 142.374L151.168 134.857L150.253 129.474L149.441 127.646L148.628 126.122L147.613 124.903L146.495 124.091L143.753 123.278L140.503 123.075L132.478 123.38H96.4198L104.139 64.1629H140.198L143.651 64.2644L147.105 64.8739L150.05 65.6865L153.097 66.9053L155.84 68.4289L158.379 70.1557L160.919 72.1871L163.052 74.5233L165.286 76.961L167.115 79.9066L170.466 86.001L171.99 89.4545L173.31 93.0095L174.529 96.6661L175.443 100.627L180.522 63.8582H208.658L212.01 64.0613L215.159 64.8739L218.002 65.9912L220.846 67.4132L223.589 69.4447L226.027 71.7808L228.363 74.5233L230.394 77.5705L232.426 80.8208L234.153 84.3758L235.574 88.3372L236.793 92.4001L237.809 96.6661L238.52 101.135L239.028 105.808L239.13 110.582L238.926 121.45L238.215 130.998L236.997 139.733L236.285 143.999L235.473 147.96L233.442 155.883L231.105 163.806L225.417 180.87L229.074 189.402L233.543 200.473L238.215 213.576L240.45 220.686L242.278 228.101V145.929V63.8582H276.102V125.614Z" fill="white"/>
<path fill-rule="evenodd" clip-rule="evenodd" d="M259.14 55.4276C245.631 55.4276 234.56 44.3561 234.56 30.847C234.56 17.3378 245.631 6.26636 259.14 6.26636C272.649 6.26636 283.721 17.3378 283.721 30.847C283.823 44.3561 272.751 55.4276 259.14 55.4276Z" fill="#ED1C24"/>
<path d="M101.405 386.553C102.217 386.452 102.725 386.553 103.131 386.756C103.538 387.061 103.741 387.467 103.842 387.975C103.741 388.889 103.741 389.6 103.639 390.21C103.538 391.327 103.334 392.343 103.233 393.054C103.03 393.765 102.928 394.273 102.928 394.578C102.725 395.289 102.42 395.898 102.116 396.507C101.709 397.117 101.202 397.625 100.592 398.133C99.9827 398.64 99.3731 399.148 98.9668 399.351C98.5605 399.555 98.2559 399.758 98.0528 399.758C97.5449 399.758 97.0371 399.758 96.5292 399.758C96.1229 399.758 95.6149 399.859 95.107 399.961C94.7007 399.758 94.2946 399.351 93.9899 398.844C93.5836 398.234 93.4821 397.422 93.2789 396.406C93.1773 395.492 93.5836 394.273 94.4977 392.749C95.4119 391.226 96.3259 390.311 97.1385 390.108C97.5448 389.397 98.0526 388.585 98.6621 387.671C98.9668 387.467 99.2716 387.163 99.7795 386.96C100.287 386.756 100.795 386.553 101.405 386.553Z" fill="#ED1C24"/>
<path d="M255.988 365.122C256.8 365.021 257.308 365.122 257.714 365.326C258.121 365.63 258.324 366.037 258.425 366.646C258.324 367.56 258.324 368.271 258.324 368.779C258.121 369.896 258.019 370.81 257.816 371.623C257.715 372.334 257.613 372.842 257.511 373.147C257.308 373.858 257.003 374.569 256.699 375.076C256.292 375.584 255.785 376.194 255.175 376.702C254.566 377.311 254.058 377.717 253.55 377.921C253.042 378.124 252.737 378.327 252.636 378.327C252.128 378.327 251.62 378.327 251.112 378.428C250.604 378.428 250.198 378.53 249.69 378.53C249.284 378.327 248.878 378.022 248.573 377.413C248.268 376.803 247.963 375.991 247.862 374.975C247.76 374.061 248.167 372.842 249.081 371.318C249.995 369.795 250.808 368.881 251.722 368.677C252.128 367.966 252.636 367.154 253.245 366.24C253.55 366.036 253.855 365.732 254.362 365.529C254.769 365.325 255.378 365.224 255.988 365.122Z" fill="#ED1C24"/>
<path d="M389.862 0H386.307V465H389.862V0Z" fill="#00426D"/>
<path d="M500.882 238.726C508.906 238.726 515.305 240.96 520.079 245.531C524.853 250 527.189 255.993 527.189 263.408C527.189 270.924 524.751 277.019 519.876 281.488C515 286.059 508.398 288.293 500.171 288.293H483.31V310.131H465.737V238.726H500.882ZM498.85 273.565C502.304 273.565 504.944 272.651 506.874 270.823C508.804 268.995 509.82 266.557 509.82 263.51C509.82 260.564 508.804 258.228 506.874 256.4C504.843 254.571 502.202 253.657 498.85 253.657H483.31V273.464H498.85V273.565Z" fill="#00426D"/>
<path d="M594.944 247.969C602.359 255.18 606.015 264.017 606.015 274.479C606.015 284.84 602.359 293.676 594.944 300.888C587.529 308.1 578.591 311.756 567.926 311.756C557.261 311.756 548.221 308.1 540.907 300.888C533.492 293.676 529.836 284.84 529.836 274.479C529.836 264.017 533.492 255.18 540.907 247.969C548.221 240.757 557.261 237.1 567.926 237.1C578.591 237.1 587.631 240.757 594.944 247.969ZM582.552 289.613C586.513 285.652 588.444 280.573 588.444 274.581C588.444 268.486 586.513 263.408 582.552 259.345C578.591 255.282 573.715 253.25 567.926 253.25C562.034 253.25 557.159 255.282 553.299 259.345C549.338 263.408 547.408 268.486 547.408 274.581C547.408 280.573 549.338 285.652 553.299 289.613C557.159 293.676 562.034 295.606 567.926 295.606C573.715 295.606 578.591 293.575 582.552 289.613Z" fill="#00426D"/>
<path d="M664.521 310.131H611.704V238.726H629.275V294.794H664.521V310.131Z" fill="#00426D"/>
<path d="M687.679 238.726H670.107V310.131H687.679V238.726Z" fill="#00426D"/>
<path d="M732.469 254.063V310.131H714.897V254.063H691.738V238.726H755.628V254.063H732.469Z" fill="#00426D"/>
<path d="M815.455 310.131H759.692V238.726H815.049V253.86H777.264V267.268H812.002V281.59H777.264V294.997H815.455V310.131Z" fill="#00426D"/>
<path d="M866.848 310.131L843.487 283.215H839.728V310.131H822.156V238.726H839.728V267.065H842.369L866.645 238.726H887.772L857.402 274.479L889.905 310.131H866.848Z" fill="#00426D"/>
<path d="M959.894 310.131H945.37L909.21 268.791V310.131H891.536V238.726H906.163L942.424 281.386V238.726H959.894V310.131Z" fill="#00426D"/>
<path d="M985.687 238.726H968.115V310.131H985.687V238.726Z" fill="#00426D"/>
<path d="M1038.61 310.131L1015.25 283.215H1011.49V310.131H993.815V238.726H1011.49V267.065H1014.03L1038.41 238.726H1059.53L1029.06 274.479L1061.67 310.131H1038.61Z" fill="#00426D"/>
<path d="M1136.63 310.131H1083.81V238.726H1101.39V294.794H1136.63V310.131Z" fill="#00426D"/>
<path d="M1177.47 238.726C1185.49 238.726 1191.89 240.96 1196.66 245.531C1201.44 250 1203.77 255.993 1203.77 263.408C1203.77 270.924 1201.34 277.019 1196.46 281.488C1191.59 286.059 1184.98 288.293 1176.76 288.293H1159.89V310.131H1142.32V238.726H1177.47ZM1175.44 273.565C1178.89 273.565 1181.53 272.651 1183.46 270.823C1185.39 268.995 1186.4 266.557 1186.4 263.51C1186.4 260.564 1185.39 258.228 1183.46 256.4C1181.43 254.571 1178.79 253.657 1175.44 253.657H1159.89V273.464H1175.44V273.565Z" fill="#00426D"/>
<path d="M1260.34 288.701C1260.34 295.404 1257.8 300.991 1252.82 305.257C1247.85 309.523 1241.45 311.656 1233.63 311.656C1226.11 311.656 1219.81 309.625 1214.73 305.562C1209.66 301.499 1206.71 296.014 1206 289.107L1222.66 286.06C1223.16 289.615 1224.38 292.357 1226.21 294.287C1228.14 296.217 1230.58 297.131 1233.73 297.131C1236.67 297.131 1239.21 296.318 1241.14 294.693C1243.07 293.068 1243.99 291.037 1243.99 288.497C1243.99 286.06 1243.17 284.13 1241.45 282.708C1239.72 281.286 1237.38 280.575 1234.34 280.575H1226.11V267.573H1233.63C1236.57 267.573 1239.01 266.862 1240.64 265.44C1242.36 264.018 1243.17 262.088 1243.17 259.752C1243.17 257.315 1242.26 255.283 1240.53 253.76C1238.81 252.236 1236.47 251.525 1233.63 251.525C1230.68 251.525 1228.14 252.439 1226.31 254.369C1224.38 256.299 1223.27 259.143 1222.96 263.003L1206.81 259.955C1207.62 252.947 1210.37 247.36 1215.24 243.196C1220.12 239.031 1226.21 237 1233.53 237C1241.14 237 1247.34 239.133 1252.01 243.297C1256.79 247.462 1259.12 252.845 1259.12 259.549C1259.12 266.151 1256.58 270.925 1251.4 273.972C1257.39 276.918 1260.34 281.895 1260.34 288.701Z" fill="#00426D"/>
<path d="M1283.7 238.726H1266.13V310.131H1283.7V238.726Z" fill="#00426D"/>
<path d="M509.317 399.719L486.464 373.412H482.807V399.719H465.641V329.837H482.807V357.567H485.346L509.114 329.837H529.733L500.074 364.88L531.866 399.719H509.317Z" fill="#00426D"/>
<path d="M585.092 399.719L580.216 387.023H550.76L545.885 399.719H527.398L556.651 329.837H574.325L603.578 399.719H585.092ZM565.488 349.238L556.651 372.193H574.528L565.488 349.238Z" fill="#00426D"/>
<path d="M685.847 399.719H669.189V364.88L650.906 399.719H640.342L621.958 364.677V399.719H605.3V329.837H622.16L645.624 373.107L669.087 329.837H685.847V399.719Z" fill="#00426D"/>
<path d="M728.204 329.837C736.025 329.837 742.322 332.072 746.893 336.439C751.565 340.807 753.8 346.698 753.8 353.91C753.8 361.325 751.463 367.216 746.69 371.685C741.916 376.154 735.517 378.389 727.391 378.389H710.936V399.821H693.77V329.939H728.204V329.837ZM726.273 363.966C729.625 363.966 732.266 363.051 734.196 361.325C736.126 359.496 737.04 357.16 737.04 354.215C737.04 351.371 736.024 349.034 734.095 347.308C732.165 345.581 729.524 344.667 726.273 344.667H711.037V364.067H726.273V363.966Z" fill="#00426D"/>
<path d="M821.35 368.232C821.35 378.287 818.506 386.21 812.818 392.304C807.13 398.297 799.614 401.344 790.371 401.344C780.823 401.344 773.205 398.297 767.415 392.304C761.625 386.312 758.68 378.287 758.68 368.232V329.837H775.846V368.232C775.846 373.513 777.166 377.678 779.807 380.827C782.448 383.874 786.003 385.499 790.371 385.499C794.535 385.499 797.887 383.975 800.426 380.827C802.965 377.78 804.185 373.513 804.185 368.232V329.837H821.35V368.232V368.232Z" fill="#00426D"/>
<path d="M875.693 333.595C880.873 337.15 884.123 342.127 885.444 348.425L868.583 351.878C867.973 348.729 866.45 346.292 864.215 344.666C861.879 342.94 859.34 342.127 856.394 342.127C853.652 342.127 851.316 342.838 849.589 344.159C847.862 345.479 846.948 347.206 846.948 349.237C846.948 352.284 848.878 354.214 852.636 355.128L867.161 358.379C879.959 361.223 886.358 368.028 886.358 378.693C886.358 385.905 883.615 391.39 878.13 395.351C872.646 399.313 865.739 401.344 857.613 401.344C849.487 401.344 842.58 399.516 836.892 395.758C831.204 391.999 827.954 386.819 827.04 380.115L844.815 376.662C846.44 383.569 851.112 387.022 858.629 387.022C861.879 387.022 864.317 386.311 866.145 384.991C867.973 383.67 868.888 381.944 868.888 379.811C868.888 378.185 868.379 376.865 867.465 375.849C866.551 374.834 864.824 374.123 862.387 373.615L847.76 370.466C835.267 367.622 828.969 360.817 828.969 350.253C828.969 343.549 831.509 338.166 836.587 334.204C841.666 330.243 848.37 328.212 856.597 328.212C864.114 328.313 870.513 330.04 875.693 333.595Z" fill="#00426D"/>
<path d="M948.008 344.87V399.719H930.943V344.87H908.293V329.837H970.659V344.87H948.008Z" fill="#00426D"/>
<path d="M1019.01 399.719L1014.14 387.023H984.682L979.806 399.719H961.32L990.573 329.837H1008.25L1037.5 399.719H1019.01ZM999.41 349.238L990.573 372.193H1008.45L999.41 349.238Z" fill="#00426D"/>
<path d="M1084.02 333.595C1089.2 337.15 1092.45 342.127 1093.77 348.425L1076.91 351.878C1076.3 348.729 1074.78 346.292 1072.54 344.666C1070.21 342.94 1067.67 342.127 1064.72 342.127C1061.98 342.127 1059.64 342.838 1057.92 344.159C1056.19 345.479 1055.27 347.206 1055.27 349.237C1055.27 352.284 1057.2 354.214 1060.96 355.128L1075.49 358.379C1088.29 361.223 1094.68 368.028 1094.68 378.693C1094.68 385.905 1091.94 391.39 1086.46 395.351C1080.97 399.313 1074.07 401.344 1065.94 401.344C1057.81 401.344 1050.91 399.516 1045.22 395.758C1039.53 391.999 1036.28 386.819 1035.37 380.115L1053.14 376.662C1054.77 383.569 1059.44 387.022 1066.96 387.022C1070.21 387.022 1072.64 386.311 1074.47 384.991C1076.3 383.67 1077.21 381.944 1077.21 379.811C1077.21 378.185 1076.71 376.865 1075.79 375.849C1074.88 374.834 1073.15 374.123 1070.71 373.615L1056.09 370.466C1043.59 367.622 1037.3 360.817 1037.3 350.253C1037.3 343.549 1039.84 338.166 1044.91 334.204C1049.99 330.243 1056.7 328.212 1064.92 328.212C1072.54 328.313 1078.94 330.04 1084.02 333.595Z" fill="#00426D"/>
<path d="M1117.74 329.837H1100.57V399.719H1117.74V329.837Z" fill="#00426D"/>
<path d="M1169.44 399.719L1146.59 373.412H1142.93V399.719H1125.76V329.837H1142.93V357.567H1145.47L1169.24 329.837H1189.86L1160.2 364.88L1191.99 399.719H1169.44Z" fill="#00426D"/>
<path d="M1274.15 399.719H1257.49V364.88L1239.21 399.719H1228.55L1210.16 364.677V399.719H1193.5V329.837H1210.47L1233.93 373.107L1257.39 329.837H1274.15V399.719Z" fill="#00426D"/>
<path d="M1333.68 399.719L1328.8 387.023H1299.35L1294.47 399.719H1275.98L1305.24 329.837H1322.91L1352.16 399.719H1333.68ZM1314.07 349.238L1305.24 372.193H1323.11L1314.07 349.238Z" fill="#00426D"/>
<path d="M1405.59 399.719H1353.89V329.837H1371.16V384.686H1405.59V399.719Z" fill="#00426D"/>
<path d="M1462.58 399.719L1457.71 387.023H1428.25L1423.37 399.719H1404.89L1434.14 329.837H1451.81L1481.07 399.719H1462.58ZM1442.98 349.238L1434.14 372.193H1452.02L1442.98 349.238Z" fill="#00426D"/>
<path d="M1510.52 399.719H1493.05V377.983L1466.03 329.837H1484.82L1501.99 360.512L1519.05 329.837H1538.25L1510.52 377.78V399.719Z" fill="#00426D"/>
<path d="M1581.01 399.719L1576.14 387.023H1546.68L1541.81 399.719H1523.32L1552.57 329.837H1570.25L1599.5 399.719H1581.01ZM1561.31 349.238L1552.47 372.193H1570.35L1561.31 349.238Z" fill="#00426D"/>
<rect x="457" y="51" width="840" height="144" rx="30" fill="#00426D"/>
<path d="M526.64 93.4V147H539.84V130.6H552.48C558.64 130.6 563.52 128.92 567.2 125.48C570.88 122.12 572.72 117.56 572.72 111.88C572.72 106.36 570.88 101.88 567.36 98.52C563.84 95.16 559.04 93.4 553.04 93.4H526.64ZM539.84 119.56V104.68H551.52C554 104.68 556 105.4 557.52 106.76C558.96 108.12 559.76 109.88 559.76 112.04C559.76 114.36 558.96 116.2 557.52 117.56C556.08 118.92 554.08 119.56 551.52 119.56H539.84ZM628.885 147L612.085 127.96C616.405 127 619.845 125.08 622.405 122.04C624.885 119 626.165 115.32 626.165 110.92C626.165 105.72 624.405 101.48 620.885 98.28C617.365 95.08 612.645 93.4 606.885 93.4H579.765V147H592.965V128.6H596.805L612.965 147H628.885ZM592.965 117.56V104.68H605.445C607.765 104.68 609.605 105.32 611.045 106.44C612.485 107.64 613.205 109.16 613.205 111.08C613.205 113.08 612.485 114.68 611.045 115.8C609.605 117 607.765 117.56 605.445 117.56H592.965ZM675.822 135.64H647.262V125.56H673.262V114.84H647.262V104.76H675.582V93.4H634.062V147H675.822V135.64ZM705.102 92.2C698.702 92.2 693.582 93.72 689.742 96.76C685.822 99.8 683.902 103.96 683.902 109.08C683.902 117.24 688.702 122.44 698.302 124.6L709.502 127C711.342 127.4 712.622 127.96 713.342 128.68C714.062 129.48 714.462 130.44 714.462 131.72C714.462 133.4 713.742 134.76 712.302 135.72C710.862 136.76 708.942 137.24 706.542 137.24C700.782 137.24 697.262 134.6 695.982 129.32L682.382 131.96C683.022 137.08 685.582 141.08 689.902 143.96C694.222 146.84 699.582 148.2 705.822 148.2C712.062 148.2 717.342 146.68 721.582 143.64C725.742 140.6 727.902 136.36 727.902 130.84C727.902 122.68 722.942 117.48 713.182 115.24L702.062 112.76C699.182 112.12 697.742 110.68 697.742 108.28C697.742 106.76 698.382 105.48 699.742 104.44C701.022 103.4 702.782 102.84 704.942 102.84C707.182 102.84 709.182 103.56 710.942 104.84C712.702 106.12 713.822 107.96 714.302 110.36L727.262 107.72C726.222 102.92 723.742 99.08 719.822 96.36C715.822 93.64 710.942 92.2 705.102 92.2ZM777.541 135.64H748.981V125.56H774.981V114.84H748.981V104.76H777.301V93.4H735.781V147H777.541V135.64ZM836.981 93.4H823.861V125.4L796.741 93.4H785.781V147H798.981V115.96L826.101 147H836.981V93.4ZM891.128 104.92V93.4H843.288V104.92H860.648V147H873.768V104.92H891.128ZM939.103 135.64H910.543V125.56H936.543V114.84H910.543V104.76H938.863V93.4H897.343V147H939.103V135.64ZM996.463 147L979.663 127.96C983.983 127 987.423 125.08 989.983 122.04C992.463 119 993.743 115.32 993.743 110.92C993.743 105.72 991.983 101.48 988.463 98.28C984.943 95.08 980.223 93.4 974.463 93.4H947.343V147H960.543V128.6H964.383L980.543 147H996.463ZM960.543 117.56V104.68H973.023C975.343 104.68 977.183 105.32 978.623 106.44C980.063 107.64 980.783 109.16 980.783 111.08C980.783 113.08 980.063 114.68 978.623 115.8C977.183 117 975.343 117.56 973.023 117.56H960.543ZM1073.91 147L1051.51 93.4H1037.99L1015.59 147H1029.75L1033.51 137.24H1056.07L1059.83 147H1073.91ZM1051.67 125.88H1037.99L1044.79 108.28L1051.67 125.88ZM1078.52 93.4V147H1091.72V130.6H1104.36C1110.52 130.6 1115.4 128.92 1119.07 125.48C1122.76 122.12 1124.6 117.56 1124.6 111.88C1124.6 106.36 1122.76 101.88 1119.24 98.52C1115.72 95.16 1110.92 93.4 1104.92 93.4H1078.52ZM1091.72 119.56V104.68H1103.4C1105.88 104.68 1107.88 105.4 1109.4 106.76C1110.84 108.12 1111.64 109.88 1111.64 112.04C1111.64 114.36 1110.84 116.2 1109.4 117.56C1107.96 118.92 1105.96 119.56 1103.4 119.56H1091.72ZM1131.64 93.4V147H1144.84V130.6H1157.48C1163.64 130.6 1168.52 128.92 1172.2 125.48C1175.88 122.12 1177.72 117.56 1177.72 111.88C1177.72 106.36 1175.88 101.88 1172.36 98.52C1168.84 95.16 1164.04 93.4 1158.04 93.4H1131.64ZM1144.84 119.56V104.68H1156.52C1159 104.68 1161 105.4 1162.52 106.76C1163.96 108.12 1164.76 109.88 1164.76 112.04C1164.76 114.36 1163.96 116.2 1162.52 117.56C1161.08 118.92 1159.08 119.56 1156.52 119.56H1144.84ZM1205.81 92.2C1199.41 92.2 1194.29 93.72 1190.45 96.76C1186.53 99.8 1184.61 103.96 1184.61 109.08C1184.61 117.24 1189.41 122.44 1199.01 124.6L1210.21 127C1212.05 127.4 1213.33 127.96 1214.05 128.68C1214.77 129.48 1215.17 130.44 1215.17 131.72C1215.17 133.4 1214.45 134.76 1213.01 135.72C1211.57 136.76 1209.65 137.24 1207.25 137.24C1201.49 137.24 1197.97 134.6 1196.69 129.32L1183.09 131.96C1183.73 137.08 1186.29 141.08 1190.61 143.96C1194.93 146.84 1200.29 148.2 1206.53 148.2C1212.77 148.2 1218.05 146.68 1222.29 143.64C1226.45 140.6 1228.61 136.36 1228.61 130.84C1228.61 122.68 1223.65 117.48 1213.89 115.24L1202.77 112.76C1199.89 112.12 1198.45 110.68 1198.45 108.28C1198.45 106.76 1199.09 105.48 1200.45 104.44C1201.73 103.4 1203.49 102.84 1205.65 102.84C1207.89 102.84 1209.89 103.56 1211.65 104.84C1213.41 106.12 1214.53 107.96 1215.01 110.36L1227.97 107.72C1226.93 102.92 1224.45 99.08 1220.52 96.36C1216.53 93.64 1211.65 92.2 1205.81 92.2Z" fill="white"/>
</svg>
